# Blender v3.4.1 OBJ File: 'bottle.blend'
# www.blender.org
mtllib back.mtl
o Plane.005_Plane.007
v -2.262948 0.000000 2.023429
v -2.262948 0.069904 -0.941754
v -2.262948 2.772843 -1.011714
v 2.262948 0.069904 -0.941754
v 2.262948 2.772843 -1.011714
v 2.262948 0.000000 2.023429
v -2.262948 0.069904 -1.011714
v 2.262948 0.069904 -1.011714
v -2.262948 0.000000 -0.941754
v 2.262948 0.000000 -0.941754
vt 0.000000 0.510535
vt 0.779254 0.510535
vt 0.779254 0.522571
vt 0.000000 0.522571
vt 0.000000 0.534617
vt 0.779254 0.534617
vt 0.779254 1.000000
vt 0.000000 1.000000
vt 0.000000 0.000000
vt 0.779254 0.000000
vn 0.0000 0.0000 1.0000
vn 0.0000 1.0000 0.0000
usemtl None
s off
f 9/1/1 10/2/1 4/3/1 2/4/1
f 7/5/1 8/6/1 5/7/1 3/8/1
f 2/4/2 4/3/2 8/6/2 7/5/2
f 1/9/2 6/10/2 10/2/2 9/1/2
