# Blender v3.4.1 OBJ File: 'bottle.blend'
# www.blender.org
mtllib BOTTLE.mtl
o Cylinder.001_Cylinder.004
v 0.000000 0.156798 -0.014012
v -0.000000 0.187610 -0.010699
v 0.007006 0.156798 -0.012135
v 0.005349 0.187610 -0.009266
v 0.012135 0.156798 -0.007006
v 0.009266 0.187610 -0.005350
v 0.014012 0.156798 0.000000
v 0.010699 0.187610 -0.000000
v 0.012135 0.156798 0.007006
v 0.009266 0.187610 0.005350
v 0.007006 0.156798 0.012135
v 0.005349 0.187610 0.009266
v 0.000000 0.156798 0.014012
v -0.000000 0.187610 0.010699
v -0.007006 0.156798 0.012135
v -0.005350 0.187610 0.009266
v -0.012135 0.156798 0.007006
v -0.009266 0.187610 0.005350
v -0.014012 0.156798 0.000000
v -0.010699 0.187610 -0.000000
v -0.012135 0.156798 -0.007006
v -0.009266 0.187610 -0.005350
v -0.007006 0.156798 -0.012135
v -0.005350 0.187610 -0.009266
v 0.000000 0.116230 -0.029276
v 0.014638 0.116230 -0.025354
v 0.025354 0.116230 -0.014638
v 0.029276 0.116230 0.000000
v 0.025354 0.116230 0.014638
v 0.014638 0.116230 0.025354
v 0.000000 0.116230 0.029276
v -0.014637 0.116230 0.025354
v -0.025353 0.116230 0.014638
v -0.029275 0.116230 0.000000
v -0.025353 0.116230 -0.014638
v -0.014637 0.116230 -0.025354
v 0.000000 0.078801 -0.029276
v 0.014638 0.078801 -0.025354
v 0.025354 0.078801 -0.014638
v 0.029276 0.078801 0.000000
v 0.025354 0.078801 0.014638
v 0.014638 0.078801 0.025354
v 0.000000 0.078801 0.029276
v -0.014637 0.078801 0.025354
v -0.025353 0.078801 0.014638
v -0.029275 0.078801 0.000000
v -0.025353 0.078801 -0.014638
v -0.014637 0.078801 -0.025354
v 0.000001 0.035426 -0.022447
v 0.011224 0.035426 -0.019440
v 0.019440 0.035426 -0.011223
v 0.022447 0.035426 0.000000
v 0.019440 0.035426 0.011224
v 0.011224 0.035426 0.019440
v 0.000001 0.035426 0.022447
v -0.011223 0.035426 0.019440
v -0.019439 0.035426 0.011224
v -0.022446 0.035426 0.000000
v -0.019439 0.035426 -0.011223
v -0.011223 0.035426 -0.019440
v 0.000000 0.009540 -0.028849
v 0.014425 0.009540 -0.024984
v 0.024985 0.009540 -0.014425
v 0.028850 0.009540 0.000000
v 0.024985 0.009540 0.014425
v 0.014425 0.009540 0.024984
v 0.000000 0.009540 0.028849
v -0.014424 0.009540 0.024984
v -0.024984 0.009540 0.014425
v -0.028849 0.009540 0.000000
v -0.024984 0.009540 -0.014425
v -0.014424 0.009540 -0.024984
v -0.000000 0.189651 -0.013290
v 0.006645 0.189651 -0.011509
v 0.011509 0.189651 -0.006645
v 0.013290 0.189651 -0.000000
v 0.011509 0.189651 0.006645
v 0.006645 0.189651 0.011509
v -0.000000 0.189651 0.013290
v -0.006645 0.189651 0.011509
v -0.011510 0.189651 0.006645
v -0.013290 0.189651 -0.000000
v -0.011510 0.189651 -0.006645
v -0.006645 0.189651 -0.011509
v -0.000000 0.194711 -0.010707
v 0.005353 0.194711 -0.009272
v 0.009272 0.194711 -0.005353
v 0.010707 0.194711 -0.000000
v 0.009272 0.194711 0.005353
v 0.005353 0.194711 0.009272
v -0.000000 0.194711 0.010707
v -0.005354 0.194711 0.009272
v -0.009273 0.194711 0.005353
v -0.010707 0.194711 -0.000000
v -0.009273 0.194711 -0.005353
v -0.005354 0.194711 -0.009272
v 0.000000 -0.003053 -0.020222
v 0.000000 -0.000621 -0.024116
v 0.012058 -0.000621 -0.020885
v 0.010111 -0.003053 -0.017513
v 0.020885 -0.000621 -0.012058
v 0.017513 -0.003053 -0.010111
v 0.024116 -0.000621 0.000000
v 0.020222 -0.003053 0.000000
v 0.020885 -0.000621 0.012058
v 0.017513 -0.003053 0.010111
v 0.012058 -0.000621 0.020885
v 0.010111 -0.003053 0.017513
v 0.000000 -0.000621 0.024116
v 0.000000 -0.003053 0.020222
v -0.012057 -0.000621 0.020885
v -0.010110 -0.003053 0.017513
v -0.020884 -0.000621 0.012058
v -0.017512 -0.003053 0.010111
v -0.024115 -0.000621 0.000000
v -0.020221 -0.003053 0.000000
v -0.020884 -0.000621 -0.012058
v -0.017512 -0.003053 -0.010111
v -0.012057 -0.000621 -0.020885
v -0.010110 -0.003053 -0.017513
vt 0.975468 0.503356
vt 0.975468 0.532660
vt 0.968263 0.532660
vt 0.968263 0.503356
vt 0.961059 0.532660
vt 0.961058 0.503356
vt 0.953854 0.532660
vt 0.953854 0.503356
vt 0.946649 0.532660
vt 0.946649 0.503356
vt 0.939444 0.532660
vt 0.939444 0.503356
vt 0.932239 0.532660
vt 0.932239 0.503356
vt 0.925035 0.532660
vt 0.925035 0.503356
vt 0.917830 0.532660
vt 0.917830 0.503356
vt 0.910625 0.532660
vt 0.910625 0.503356
vt 0.903421 0.532660
vt 0.903421 0.503356
vt 0.931106 0.413272
vt 0.925845 0.413272
vt 0.925845 0.410416
vt 0.931106 0.410416
vt 0.896216 0.532660
vt 0.896216 0.503356
vt 0.889011 0.532660
vt 0.889011 0.503356
vt 0.903421 0.462371
vt 0.910625 0.462371
vt 0.854629 0.388898
vt 0.841568 0.388898
vt 0.841568 0.356639
vt 0.854629 0.356639
vt 0.917830 0.462371
vt 0.925035 0.462371
vt 0.932239 0.462371
vt 0.939444 0.462371
vt 0.946649 0.462371
vt 0.953854 0.462371
vt 0.889011 0.462371
vt 0.896216 0.462371
vt 0.968263 0.462371
vt 0.975468 0.462371
vt 0.961058 0.462371
vt 0.815444 0.509344
vt 0.815444 0.497685
vt 0.852852 0.497685
vt 0.852852 0.509344
vt 0.893814 0.388898
vt 0.880752 0.388898
vt 0.880752 0.356639
vt 0.893814 0.356639
vt 0.932999 0.388898
vt 0.919937 0.388898
vt 0.919937 0.356639
vt 0.932999 0.356639
vt 0.828506 0.388898
vt 0.828506 0.356639
vt 0.972183 0.388898
vt 0.959121 0.388898
vt 0.959121 0.356639
vt 0.972183 0.356639
vt 0.867691 0.388898
vt 0.867691 0.356639
vt 0.906875 0.388898
vt 0.906875 0.356639
vt 0.815445 0.388898
vt 0.815445 0.356639
vt 0.946060 0.388898
vt 0.946060 0.356639
vt 0.875569 0.497685
vt 0.875569 0.509344
vt 0.815444 0.427739
vt 0.815444 0.416081
vt 0.852852 0.416081
vt 0.852852 0.427739
vt 0.815444 0.462712
vt 0.815444 0.451054
vt 0.852852 0.451054
vt 0.852852 0.462712
vt 0.815444 0.486028
vt 0.852852 0.486028
vt 0.815444 0.404422
vt 0.852852 0.404422
vt 0.815444 0.532659
vt 0.815444 0.521002
vt 0.852852 0.521001
vt 0.852852 0.532659
vt 0.815444 0.439396
vt 0.852852 0.439396
vt 0.815444 0.474370
vt 0.852852 0.474370
vt 0.815444 0.392765
vt 0.852852 0.392765
vt 0.875569 0.462712
vt 0.875569 0.451054
vt 0.885119 0.451054
vt 0.885119 0.462712
vt 0.875569 0.416081
vt 0.875569 0.427739
vt 0.875569 0.486028
vt 0.875569 0.404422
vt 0.875569 0.521001
vt 0.875569 0.532659
vt 0.875569 0.439396
vt 0.875569 0.474370
vt 0.875569 0.392765
vt 0.885119 0.392765
vt 0.885119 0.404422
vt 0.885119 0.486028
vt 0.885119 0.497685
vt 0.885119 0.416081
vt 0.885119 0.439396
vt 0.885119 0.474370
vt 0.897452 0.425478
vt 0.905261 0.421010
vt 0.914160 0.421023
vt 0.921865 0.425537
vt 0.926362 0.433290
vt 0.926334 0.442260
vt 0.921887 0.450055
vt 0.914121 0.454542
vt 0.905152 0.454583
vt 0.897382 0.450131
vt 0.892907 0.442374
vt 0.892955 0.433391
vt 0.885119 0.427739
vt 0.885119 0.509344
vt 0.885119 0.521001
vt 0.910059 0.410416
vt 0.904798 0.410416
vt 0.904798 0.405495
vt 0.910059 0.405495
vt 0.920583 0.413272
vt 0.920583 0.410416
vt 0.915321 0.413272
vt 0.915321 0.410416
vt 0.910059 0.413272
vt 0.904798 0.413272
vt 0.952154 0.413272
vt 0.946892 0.413272
vt 0.946892 0.410416
vt 0.952154 0.410416
vt 0.894274 0.413272
vt 0.889012 0.413272
vt 0.889012 0.410416
vt 0.894274 0.410416
vt 0.899535 0.413272
vt 0.899535 0.410416
vt 0.941630 0.413272
vt 0.941630 0.410416
vt 0.936368 0.413272
vt 0.936368 0.410416
vt 0.939007 0.440677
vt 0.943784 0.440677
vt 0.947921 0.443065
vt 0.950310 0.447203
vt 0.950310 0.451979
vt 0.947921 0.456116
vt 0.943784 0.458505
vt 0.939007 0.458505
vt 0.934870 0.456116
vt 0.932482 0.451979
vt 0.932482 0.447203
vt 0.934870 0.443065
vt 0.941630 0.405495
vt 0.946892 0.405495
vt 0.889012 0.405495
vt 0.894274 0.405495
vt 0.925845 0.405495
vt 0.931106 0.405495
vt 0.915321 0.405495
vt 0.952154 0.405495
vt 0.899535 0.405495
vt 0.936368 0.405495
vt 0.920583 0.405495
vt 0.894771 0.422519
vt 0.904220 0.417171
vt 0.915169 0.417138
vt 0.924697 0.422663
vt 0.930253 0.432206
vt 0.930253 0.443267
vt 0.924783 0.452878
vt 0.915214 0.458436
vt 0.904159 0.458502
vt 0.894557 0.453024
vt 0.889011 0.443453
vt 0.889029 0.432393
vt 0.894411 0.422731
vt 0.885119 0.532659
vn -0.0000 0.2362 -0.9717
vn -0.0000 0.1069 -0.9943
vn 0.4971 0.1069 -0.8611
vn 0.4859 0.2362 -0.8415
vn 0.8611 0.1069 -0.4971
vn 0.8415 0.2362 -0.4859
vn 0.9943 0.1069 -0.0000
vn 0.9717 0.2362 -0.0000
vn 0.8611 0.1069 0.4971
vn 0.8415 0.2362 0.4859
vn 0.4971 0.1069 0.8611
vn 0.4859 0.2362 0.8415
vn -0.0000 0.1069 0.9943
vn -0.0000 0.2362 0.9717
vn -0.4971 0.1069 0.8611
vn -0.4859 0.2362 0.8415
vn -0.8611 0.1069 0.4971
vn -0.8415 0.2362 0.4859
vn -0.9943 0.1069 -0.0000
vn -0.9717 0.2362 -0.0000
vn -0.8611 0.1069 -0.4971
vn -0.8415 0.2362 -0.4859
vn -0.5358 -0.7856 0.3094
vn -0.3094 -0.7856 0.5358
vn -0.4971 0.1069 -0.8611
vn -0.4859 0.2362 -0.8415
vn -0.8528 0.1740 -0.4924
vn -0.9847 0.1740 0.0000
vn -0.8635 -0.0770 -0.4985
vn -0.9970 -0.0770 -0.0000
vn -0.8528 0.1740 0.4924
vn -0.4924 0.1740 0.8528
vn 0.0000 0.1740 0.9847
vn 0.4924 0.1740 0.8528
vn 0.8528 0.1740 0.4924
vn 0.9847 0.1740 0.0000
vn 0.0000 0.1740 -0.9847
vn -0.4924 0.1740 -0.8528
vn 0.4924 0.1740 -0.8528
vn 0.8528 0.1740 -0.4924
vn 0.8635 -0.0770 -0.4985
vn 0.9970 -0.0770 -0.0000
vn 0.9990 0.0446 -0.0000
vn 0.8652 0.0446 -0.4995
vn -0.4985 -0.0770 0.8635
vn -0.0000 -0.0770 0.9970
vn 0.8635 -0.0770 0.4985
vn -0.4985 -0.0770 -0.8635
vn 0.4985 -0.0770 -0.8635
vn -0.0000 -0.0770 -0.9970
vn -0.8635 -0.0770 0.4985
vn 0.4985 -0.0770 0.8635
vn 0.9958 -0.0917 -0.0000
vn 0.8624 -0.0917 -0.4979
vn -0.8652 0.0446 -0.4995
vn -0.9990 0.0446 -0.0000
vn -0.4995 0.0446 0.8652
vn 0.0000 0.0446 0.9990
vn 0.8652 0.0446 0.4995
vn -0.4995 0.0446 -0.8652
vn 0.4995 0.0446 -0.8652
vn 0.0000 0.0446 -0.9990
vn -0.8652 0.0446 0.4995
vn 0.4995 0.0446 0.8652
vn -0.0000 -0.0917 0.9958
vn -0.4979 -0.0917 0.8624
vn -0.4532 -0.4223 0.7850
vn -0.0000 -0.4223 0.9065
vn -0.8624 -0.0917 -0.4979
vn -0.9958 -0.0917 -0.0000
vn 0.8624 -0.0917 0.4979
vn -0.4979 -0.0917 -0.8624
vn 0.4979 -0.0917 -0.8624
vn -0.0000 -0.0917 -0.9958
vn -0.8624 -0.0917 0.4979
vn 0.4979 -0.0917 0.8624
vn -0.0000 -0.4223 -0.9065
vn -0.4532 -0.4223 -0.7850
vn 0.7850 -0.4223 0.4532
vn 0.9065 -0.4223 -0.0000
vn -0.7850 -0.4223 -0.4532
vn -0.7850 -0.4223 0.4532
vn 0.4532 -0.4223 0.7850
vn -0.0000 -0.9485 -0.3168
vn 0.1584 -0.9485 -0.2744
vn 0.2744 -0.9485 -0.1584
vn 0.3168 -0.9485 -0.0000
vn 0.2744 -0.9485 0.1584
vn 0.1584 -0.9485 0.2744
vn -0.0000 -0.9485 0.3168
vn -0.1584 -0.9485 0.2744
vn -0.2744 -0.9485 0.1584
vn -0.3168 -0.9485 0.0000
vn -0.2744 -0.9485 -0.1584
vn -0.1584 -0.9485 -0.2744
vn -0.9065 -0.4223 -0.0000
vn 0.7850 -0.4223 -0.4532
vn 0.4532 -0.4223 -0.7850
vn 0.7714 0.4546 0.4453
vn 0.8907 0.4546 0.0000
vn 0.0000 -0.7856 0.6187
vn 0.3094 -0.7856 0.5358
vn 0.5359 -0.7856 0.3094
vn 0.5358 -0.7856 0.3094
vn 0.6187 -0.7856 -0.0000
vn 0.0000 -0.7856 -0.6187
vn -0.3094 -0.7856 -0.5358
vn 0.3094 -0.7856 -0.5358
vn 0.5359 -0.7856 -0.3094
vn -0.5358 -0.7856 -0.3094
vn -0.6187 -0.7856 0.0000
vn 0.0000 1.0000 -0.0000
vn -0.4453 0.4546 -0.7714
vn -0.7714 0.4546 -0.4453
vn 0.4453 0.4546 -0.7714
vn 0.0000 0.4546 -0.8907
vn -0.7714 0.4546 0.4453
vn -0.4453 0.4546 0.7714
vn 0.4453 0.4546 0.7714
vn 0.7714 0.4546 -0.4453
vn -0.8907 0.4546 0.0000
vn 0.0000 0.4546 0.8907
vn 0.0000 -0.8482 -0.5297
vn 0.2649 -0.8482 -0.4588
vn 0.4588 -0.8482 -0.2649
vn 0.5297 -0.8482 -0.0000
vn 0.4588 -0.8482 0.2649
vn 0.2649 -0.8482 0.4588
vn 0.0000 -0.8482 0.5297
vn -0.2649 -0.8482 0.4588
vn -0.4588 -0.8482 0.2649
vn -0.5297 -0.8482 0.0000
vn -0.4588 -0.8482 -0.2649
vn -0.2649 -0.8482 -0.4588
usemtl shelves
s 1
f 1/1/1 2/2/2 4/3/3 3/4/4
f 3/4/4 4/3/3 6/5/5 5/6/6
f 5/6/6 6/5/5 8/7/7 7/8/8
f 7/8/8 8/7/7 10/9/9 9/10/10
f 9/10/10 10/9/9 12/11/11 11/12/12
f 11/12/12 12/11/11 14/13/13 13/14/14
f 13/14/14 14/13/13 16/15/15 15/16/16
f 15/16/16 16/15/15 18/17/17 17/18/18
f 17/18/18 18/17/17 20/19/19 19/20/20
f 19/20/20 20/19/19 22/21/21 21/22/22
f 18/23/23 16/24/24 80/25/24 81/26/23
f 21/22/22 22/21/21 24/27/25 23/28/26
f 23/28/26 24/27/25 2/29/2 1/30/1
f 19/20/20 21/22/22 35/31/27 34/32/28
f 34/33/28 35/34/27 47/35/29 46/36/30
f 17/18/18 19/20/20 34/32/28 33/37/31
f 15/16/16 17/18/18 33/37/31 32/38/32
f 13/14/14 15/16/16 32/38/32 31/39/33
f 11/12/12 13/14/14 31/39/33 30/40/34
f 9/10/10 11/12/12 30/40/34 29/41/35
f 7/8/8 9/10/10 29/41/35 28/42/36
f 23/28/26 1/30/1 25/43/37 36/44/38
f 1/1/1 3/4/4 26/45/39 25/46/37
f 5/6/6 7/8/8 28/42/36 27/47/40
f 21/22/22 23/28/26 36/44/38 35/31/27
f 3/4/4 5/6/6 27/47/40 26/45/39
f 39/48/41 40/49/42 52/50/43 51/51/44
f 31/52/33 32/53/32 44/54/45 43/55/46
f 28/56/36 29/57/35 41/58/47 40/59/42
f 35/34/27 36/60/38 48/61/48 47/35/29
f 25/62/37 26/63/39 38/64/49 37/65/50
f 32/53/32 33/66/31 45/67/51 44/54/45
f 29/57/35 30/68/34 42/69/52 41/58/47
f 36/60/38 25/70/37 37/71/50 48/61/48
f 26/63/39 27/72/40 39/73/41 38/64/49
f 33/66/31 34/33/28 46/36/30 45/67/51
f 30/68/34 31/52/33 43/55/46 42/69/52
f 27/72/40 28/56/36 40/59/42 39/73/41
f 51/51/44 52/50/43 64/74/53 63/75/54
f 46/76/30 47/77/29 59/78/55 58/79/56
f 43/80/46 44/81/45 56/82/57 55/83/58
f 40/49/42 41/84/47 53/85/59 52/50/43
f 47/77/29 48/86/48 60/87/60 59/78/55
f 37/88/50 38/89/49 50/90/61 49/91/62
f 44/81/45 45/92/51 57/93/63 56/82/57
f 41/84/47 42/94/52 54/95/64 53/85/59
f 48/86/48 37/96/50 49/97/62 60/87/60
f 38/89/49 39/48/41 51/51/44 50/90/61
f 45/92/51 46/76/30 58/79/56 57/93/63
f 42/94/52 43/80/46 55/83/58 54/95/64
f 67/98/65 68/99/66 111/100/67 109/101/68
f 58/79/56 59/78/55 71/102/69 70/103/70
f 55/83/58 56/82/57 68/99/66 67/98/65
f 52/50/43 53/85/59 65/104/71 64/74/53
f 59/78/55 60/87/60 72/105/72 71/102/69
f 49/91/62 50/90/61 62/106/73 61/107/74
f 56/82/57 57/93/63 69/108/75 68/99/66
f 53/85/59 54/95/64 66/109/76 65/104/71
f 60/87/60 49/97/62 61/110/74 72/105/72
f 50/90/61 51/51/44 63/75/54 62/106/73
f 57/93/63 58/79/56 70/103/70 69/108/75
f 54/95/64 55/83/58 67/98/65 66/109/76
f 72/105/72 61/110/74 98/111/77 119/112/78
f 64/74/53 65/104/71 105/113/79 103/114/80
f 71/102/69 72/105/72 119/112/78 117/115/81
f 68/99/66 69/108/75 113/116/82 111/100/67
f 65/104/71 66/109/76 107/117/83 105/113/79
f 97/118/84 100/119/85 102/120/86 104/121/87 106/122/88 108/123/89 110/124/90 112/125/91 114/126/92 116/127/93 118/128/94 120/129/95
f 69/108/75 70/103/70 115/130/96 113/116/82
f 66/109/76 67/98/65 109/101/68 107/117/83
f 62/106/73 63/75/54 101/131/97 99/132/98
f 63/75/54 64/74/53 103/114/80 101/131/97
f 70/103/70 71/102/69 117/115/81 115/130/96
f 77/133/99 76/134/100 88/135/100 89/136/99
f 16/24/24 14/137/101 79/138/101 80/25/24
f 14/137/101 12/139/102 78/140/102 79/138/101
f 12/139/102 10/141/103 77/133/104 78/140/102
f 10/141/103 8/142/105 76/134/105 77/133/104
f 2/143/106 24/144/107 84/145/107 73/146/106
f 4/147/108 2/148/106 73/149/106 74/150/108
f 8/142/105 6/151/109 75/152/109 76/134/105
f 24/144/107 22/153/110 83/154/110 84/145/107
f 6/151/109 4/147/108 74/150/108 75/152/109
f 22/153/110 20/155/111 82/156/111 83/154/110
f 20/155/111 18/23/23 81/26/23 82/156/111
f 86/157/112 85/158/112 96/159/112 95/160/112 94/161/112 93/162/112 92/163/112 91/164/112 90/165/112 89/166/112 88/167/112 87/168/112
f 84/145/113 83/154/114 95/169/114 96/170/113
f 74/150/115 73/149/116 85/171/116 86/172/115
f 81/26/117 80/25/118 92/173/118 93/174/117
f 78/140/119 77/133/99 89/136/99 90/175/119
f 73/146/116 84/145/113 96/170/113 85/176/116
f 75/152/120 74/150/115 86/172/115 87/177/120
f 82/156/121 81/26/117 93/174/117 94/178/121
f 79/138/122 78/140/119 90/175/119 91/179/122
f 76/134/100 75/152/120 87/177/120 88/135/100
f 83/154/114 82/156/121 94/178/121 95/169/114
f 80/25/118 79/138/122 91/179/122 92/173/118
f 98/180/123 99/181/124 100/119/85 97/118/84
f 99/181/124 101/182/125 102/120/86 100/119/85
f 101/182/125 103/183/126 104/121/87 102/120/86
f 103/183/126 105/184/127 106/122/88 104/121/87
f 105/184/127 107/185/128 108/123/89 106/122/88
f 107/185/128 109/186/129 110/124/90 108/123/89
f 109/186/129 111/187/130 112/125/91 110/124/90
f 111/187/130 113/188/131 114/126/92 112/125/91
f 113/188/131 115/189/132 116/127/93 114/126/92
f 115/189/132 117/190/133 118/128/94 116/127/93
f 117/190/133 119/191/134 120/129/95 118/128/94
f 119/191/134 98/192/123 97/118/84 120/129/95
f 61/107/74 62/106/73 99/132/98 98/193/77
